<?xml version="1.0" encoding="iso-8859-1"?>
<!-- Uploaded to: SVG Repo, www.svgrepo.com, Generator: SVG Repo Mixer Tools -->
<svg fill="#000000" height="800px" width="800px" version="1.1" id="Layer_1" xmlns="http://www.w3.org/2000/svg" xmlns:xlink="http://www.w3.org/1999/xlink" 
	 viewBox="0 0 512 512" xml:space="preserve">
<g>
	<g>
		<g>
			<path d="M490.667,0h-256c-11.782,0-21.333,9.551-21.333,21.333v149.333h-192C9.551,170.667,0,180.218,0,192v298.667
				C0,502.449,9.551,512,21.333,512h213.333H320h85.333h85.333c11.782,0,21.333-9.551,21.333-21.333V21.333
				C512,9.551,502.449,0,490.667,0z M42.667,213.333h170.667v256H42.667V213.333z M341.333,469.333v-42.667H384v42.667H341.333z
				 M469.333,469.333h-42.667v-64c0-11.782-9.551-21.333-21.333-21.333H320c-11.782,0-21.333,9.551-21.333,21.333v64H256V192V42.667
				h213.333V469.333z"/>
			<path d="M320,192c11.782,0,21.333-9.551,21.333-21.333v-21.333H384v21.333c0,11.782,9.551,21.333,21.333,21.333
				c11.782,0,21.333-9.551,21.333-21.333V85.333c0-11.782-9.551-21.333-21.333-21.333C393.551,64,384,73.551,384,85.333v21.333
				h-42.667V85.333C341.333,73.551,331.782,64,320,64s-21.333,9.551-21.333,21.333v85.333C298.667,182.449,308.218,192,320,192z"/>
			<path d="M149.333,234.667h-42.667c-11.782,0-21.333,9.551-21.333,21.333s9.551,21.333,21.333,21.333h42.667
				c11.782,0,21.333-9.551,21.333-21.333S161.115,234.667,149.333,234.667z"/>
			<path d="M149.333,320h-42.667c-11.782,0-21.333,9.551-21.333,21.333c0,11.782,9.551,21.333,21.333,21.333h42.667
				c11.782,0,21.333-9.551,21.333-21.333C170.667,329.551,161.115,320,149.333,320z"/>
			<path d="M384,234.667h-42.667C329.551,234.667,320,244.218,320,256s9.551,21.333,21.333,21.333H384
				c11.782,0,21.333-9.551,21.333-21.333S395.782,234.667,384,234.667z"/>
			<path d="M384,320h-42.667C329.551,320,320,329.551,320,341.333c0,11.782,9.551,21.333,21.333,21.333H384
				c11.782,0,21.333-9.551,21.333-21.333C405.333,329.551,395.782,320,384,320z"/>
		</g>
	</g>
</g>
</svg>